<?xml version="1.0" encoding="utf-8"?>
<!-- Generator: Adobe Illustrator 22.0.1, SVG Export Plug-In . SVG Version: 6.00 Build 0)  -->
<svg version="1.1" id="redwinner" xmlns="http://www.w3.org/2000/svg" xmlns:xlink="http://www.w3.org/1999/xlink" x="0px" y="0px"
             viewBox="0 0 2000 1000" style="enable-background:new 0 0 2000 1000;" xml:space="preserve">
<style type="text/css">
    .st0{fill:#21409A;stroke:#58595B;stroke-miterlimit:10;}
    .st1{fill:#ED1C24;stroke:#58595B;stroke-miterlimit:10;}
    .st2{fill:none;stroke:#FFFFFF;stroke-width:7;stroke-miterlimit:10;}
    .st3{fill:#FFFFFF;stroke:#231F20;stroke-linecap:round;stroke-miterlimit:10;}
    .st4{fill:none;stroke:#FFFFFF;stroke-width:5;stroke-linecap:round;stroke-miterlimit:10;}
    .st5{fill:none;stroke:#ED1C24;stroke-width:20;stroke-miterlimit:10;}
    .st6{fill:#00AEEF;}
    #bounce-1 {
    display: flex;
    animation-name: bounce-1;
    animation-timing-function: linear;
    animation-duration: 1s;
    animation-iteration-count: infinite;

}
@keyframes bounce-1 {
    0%   { transform: translateY(0); }
    50%  { transform: translateY(-100px); }
    100% { transform: translateY(0); }
}
</style>

            <rect x="288.4" y="403.5" class="st0" width="185" height="825"/> /*Blue Body*/


            <rect id="bounce-1" x="1511.4" y="403.5" class="st1" width="185" height="825"/> /*Red Body*/


            <path class="st2" d="M368.3,538.7c-19.7,9.7-44.7,3.6-55.8-13.6c-8.9-13.7-3.3-31.1,12.5-38.9c12.6-6.2,28.6-2.3,35.7,8.7
	c5.7,8.8,2.1,19.9-8,24.9c-8.1,4-18.3,1.5-22.8-5.6c-3.6-5.6-1.3-12.8,5.1-15.9c5.2-2.5,11.7-0.9,14.6,3.6c2.3,3.6,0.9,8.2-3.3,10.2
	c-3.3,1.6-7.5,0.6-9.4-2.3c-1.5-2.3-0.6-5.2,2.1-6.5">

            <animateTransform attributeName="transform"
                              attributeType="XML"
                              type="rotate"
                              from="0 338.3 508.7"
                              to="-360 338.3 508.7"
                              dur="1s"
                              repeatCount="indefinite"
            />
            </path>

            <path class="st2" d="M452.6,538.7c-19.7,9.7-44.7,3.6-55.8-13.6c-8.9-13.7-3.3-31.1,12.5-38.9c12.6-6.2,28.6-2.3,35.7,8.7
	c5.7,8.8,2.1,19.9-8,24.9c-8.1,4-18.3,1.5-22.8-5.6c-3.6-5.6-1.3-12.8,5.1-15.9c5.2-2.5,11.7-0.9,14.6,3.6c2.3,3.6,0.9,8.2-3.3,10.2
	c-3.3,1.6-7.5,0.6-9.4-2.3c-1.5-2.3-0.6-5.2,2.1-6.5">

                <animateTransform attributeName="transform"
                                  attributeType="XML"
                                  type="rotate"
                                  from="0 422.6 508.7"
                                  to="-360 422.6 508.7"
                                  dur="1s"
                                  repeatCount="indefinite"
                />
            </path>

            <circle class="st3" cx="380.9" cy="651.1" r="36.1"/>

            <g>
                <path id="bounce-1" class="st4" d="M1530.7,503.5c6.6-15.3,18.3-25,30-24.8c11.7-0.2,23.4,9.6,30,24.8"/> /*Red Left eye*/
            </g>
            <g>
                <path class="st4" d="M950.7,820.5c10.9-25.5,30.5-41.7,50-41.4c19.5-0.3,39.1,15.9,50,41.4"/>
            </g>
            <g>
                <path id="bounce-1" class="st4" d="M1617,503.5c6.6-15.3,18.3-25,30-24.8c11.7-0.2,23.4,9.6,30,24.8"/> /*Red Right eye*/
            </g>
            <g>
                <path id="bounce-1" class="st4" d="M1553.9,606.2c0,68.2,100,69.6,100,4.5"/> /*Red Mouth*/
            </g>
            <g>
            <path id="bounce-1" class="st5" d="M1367.9,471.9c0,142,72.8,256.9,162.7,256.9"/> /*Left arm*/
            </g>
            <g>
            <path id="bounce-1" class="st5" d="M1820,480c0,142-72.8,256.9-162.7,256.9"/> /*Right arm*/
            </g>


            <g>

                <g>
                    <path d="M1359.3,368.4c-7.5,10.1-14.5,20.8-20.9,32.1c-39.2-6.5-80.2-8.1-122.3-3.9c9.3-22.5,20.1-43.6,32.1-63.3
			c13.6,1.1,26.9,2.8,40.1,5.1c-6.8-11.8-13.2-23.9-19.1-36.3c9.5-12.9,19.6-25.1,30.1-36.5c13.3,3.6,26.3,7.7,39,12.3
			c-4.9-12.3-9.5-24.8-13.6-37.5c16-14.5,32.8-27.6,50.5-39.3c7,40.2,18,78.9,32.7,115.5c-9.2,7.8-17.9,16.2-26.3,25.2
			c-14.8-5.8-30.1-10.8-45.7-15.1C1343,341,1350.9,354.9,1359.3,368.4z"/>


                    <path d="M1446.8,288.3c-19.6-31.8-39.3-63.6-58.9-95.4c18.4-11.2,37.5-21,57.1-29.2c14.7,34.3,29.4,68.6,44.1,102.9
			C1474.6,272.7,1460.4,279.9,1446.8,288.3z"/>


                    <path d="M1612.6,242.1c-11.9,0.1-23.7,0.9-35.5,2.3c-9-10.8-18.7-21.2-29.3-31.2c2.2,11.2,4.4,22.5,6.6,33.7
			c-15.4,2.9-30.7,6.9-45.5,12.1c-12.4-35.2-24.8-70.4-37.2-105.6c14.4-4.9,29-9.1,43.7-12.5c13.8,9.7,26.7,20.1,38.8,31
			c-2-12.4-3.9-24.9-5.9-37.3c20.9-3.2,42.1-4.9,63.2-5.1C1611.9,167,1612.3,204.6,1612.6,242.1z"/>


                    <path d="M1735.9,264.8c-11.1-4.4-22.4-8.1-33.9-11.3c-4.2-13.3-9.3-26.6-15.2-39.7c-2.3,11.2-4.6,22.5-6.9,33.7
			c-15.4-3-31-5-46.6-5.8c2-37.2,4.1-74.4,6.1-111.6c15.1,0.8,30.2,2.4,45.1,4.7c9,14.2,17,28.6,24,43.2c3-12.3,5.9-24.5,8.9-36.8
			c20.6,4.8,41,11.2,60.8,19C1764.1,195,1750,229.9,1735.9,264.8z"/>


                    <path d="M1849.2,301.2c-6.3,7-12.5,14-18.8,21c-22.8-20.5-48.2-37.2-75-49.9c16.2-33.6,32.4-67.3,48.6-100.9
			c36.2,17.2,70.4,39.6,101.2,67.3c-6.3,7-12.5,14-18.8,21c-13.4-12.1-27.6-23.1-42.3-33.1c-2.6,3.8-5.2,7.7-7.8,11.5
			c9.9,6.7,19.5,13.9,28.8,21.6c-6,7.2-11.9,14.5-17.9,21.7c-8.6-7.1-17.6-13.8-26.7-20c-2.6,3.8-5.2,7.6-7.8,11.4
			C1825.4,281.3,1837.6,290.8,1849.2,301.2z"/>


                    <path d="M1919.9,252.6c23.3,23.1,44.4,49.5,62.7,79.2c9.5,15.4,13.5,30,12.3,42.2c-1.1,12.2-6.4,20.2-15.1,24.1
			c-9.6,4.3-19.4,2.4-29.6-4.7c-5.4,20.1-18.7,35.2-37.9,45.9c-7.4-17.8-15.9-34.4-25.5-49.7c11.4-8.4,18.9-16.1,22.5-23
			c3.5-6.9,2.9-14-1.9-20.6c-11.1,8.2-22.2,16.5-33.3,24.7c-10.1-13.8-21-26.6-32.7-38.2C1867.5,305.9,1893.7,279.2,1919.9,252.6z
			 M1945.5,317.8c-5.8,4.3-11.6,8.6-17.3,12.8c0.3,0.5,0.7,0.9,1,1.4c6.5,9.1,12.4,11.9,18.3,8.1c2.4-1.6,3.9-4.1,4.4-7.3
			c0.5-3.2-0.8-7.2-4.1-11.8C1947.1,319.9,1946.3,318.8,1945.5,317.8z"/>
                </g>
            </g>
            <g>
                <g>
                    <path d="M151.2,440c-34.4-14.3-68.8-28.5-103.3-42.8c10.4-25.2,23-48.2,37.5-69c22.8,16.1,45.7,32.2,68.5,48.4
			c9.6-13.9,20.3-26.6,31.9-37.9c6.5,6.7,13.1,13.4,19.6,20.1C183.2,380.6,164.5,407.6,151.2,440z"/>


                    <path d="M257.6,322.1c-13.4,7.4-27.1,10.2-43.3,8.7c-16.1-1.5-30.1-7-41.1-18.9c-10.9-11.8-15.1-26.9-10-45.3
			c5-18.3,18.1-34.5,38.1-45.5c20-11,40.4-13.3,58.3-7.8c17.9,5.6,28.3,17.1,32.7,32.5c4.4,15.5,2,30.3-4.8,44.5
			C280.5,304.8,271.1,314.7,257.6,322.1z M222.2,258.6c-3.5,1.9-5.8,4.6-6.9,7.8c-1.1,3.2-0.7,6.3,1.1,9.2c1.8,2.9,4.3,4.6,7.6,5.2
			c3.3,0.7,6.5,0.1,9.7-1.7c3.3-1.8,5.5-4.2,6.6-7.3c1.2-3.1,1-6.1-0.5-9.2c-1.5-3-3.9-5-7.2-5.8
			C229.2,256.1,225.7,256.7,222.2,258.6z"/>
                    <path d="M430.2,188.7c-7.4,10.7-14.3,21.7-20.7,32.8c-8.7-11.9-20.6-18.2-34.2-18.2c-7.6,0-11.3,2.4-11.1,6.8
			c0,1.4,1.3,2.7,3.6,4.1c2.3,1.4,8.4,3.4,17.9,6.8c10.4,3.7,18,7.5,23.2,10.9c5.2,3.3,8.7,7.4,10.7,12.1c2,4.6,2.4,9.8,1.4,15.4
			c-2,11.8-8.3,19.9-17.9,25.2c-9.6,5.3-22.3,7.4-39,8.1c-18.7,0.8-35,0.8-50-1.3c0.8-13,2.2-26.1,4.2-39.2c5,4.6,10.5,8,16.5,10.4
			c6,2.4,11.4,3.4,16.5,3c2.5-0.2,4.5-1,6.1-2.3c1.6-1.3,2.4-2.9,2.3-4.6c-0.1-1.7-1-3.2-2.8-4.6c-1.8-1.4-6.4-3.2-14.1-5.1
			c-6.9-1.6-12.9-3.1-17.7-4.6c-4.8-1.5-9.4-3.9-13.6-7.3c-4.2-3.4-7.2-8.2-8.7-14.4c-2.8-12,0.7-22.6,11.8-31
			c11-8.3,29.4-14.1,54.2-14.5C391.4,176.6,412.3,180.9,430.2,188.7z"/>
                    <path d="M525.7,307.4c-5.2,7.8-10.4,15.6-15.7,23.4c-25.2-16.8-53.1-28.3-82-34.6c8.2-36.4,16.3-72.8,24.5-109.1
			c42.3,9.2,83.1,26.1,119.9,50.6c-5.2,7.8-10.4,15.6-15.7,23.4c-15.8-10.5-32.5-19.6-49.7-27c-1.9,4.2-3.7,8.5-5.6,12.7
			c11.5,5,22.7,10.7,33.5,17.1c-4.8,8.1-9.6,16.1-14.4,24.2c-9.9-5.8-20.1-11-30.5-15.5c-1.9,4.2-3.7,8.4-5.6,12.6
			C498.8,291.2,512.6,298.7,525.7,307.4z"/>
                    <path d="M590,250.2c27.9,21.2,53.1,47.2,74.3,77.9c11.1,16,16,31.5,15.5,44.4c-0.5,13-5.6,21.4-14.3,25.3c-9.6,4.4-19.5,2.2-30-5
			c-4.7,20.8-17.8,36.3-37,47c-7.4-17.9-16.4-34.1-26.7-48.8c10.9-9,18-17.1,21.1-24.3c3.1-7.2,1.9-14.3-3.6-20.7
			c-10.4,9.1-20.9,18.1-31.3,27.2c-11-12.8-23-24.1-36-34C544.7,309.7,567.4,280,590,250.2z M625.2,315c-5.4,4.7-10.9,9.4-16.3,14.2
			c0.4,0.5,0.8,0.9,1.2,1.4c7.5,8.9,13.7,11.6,19.3,7.4c2.3-1.8,3.6-4.4,3.8-7.7c0.2-3.4-1.5-7.4-5.3-12
			C627,317.2,626.1,316.1,625.2,315z"/>
                </g>
            </g>
            <g>
                <path class="st6" d="M329.5,560.3c0.5,1.3,0.9,2.6,1.1,3.8c0.3,1.2,0.4,2.4,0.5,3.5c0.2,2.2,0.2,4.4,0,6.4c-0.4,4-1.6,7.7-3.4,11
		c-1.8,3.3-4.1,6.4-7.2,9c-1.5,1.3-3.3,2.5-5.3,3.6c-1,0.5-2,1-3.2,1.5c-1.1,0.5-2.4,0.9-3.8,1.2c-0.5-1.3-0.9-2.6-1.1-3.8
		c-0.3-1.2-0.4-2.4-0.6-3.5c-0.2-2.2-0.2-4.4,0-6.4c0.4-4,1.6-7.7,3.4-11c1.8-3.3,4.1-6.4,7.2-9c1.5-1.3,3.3-2.5,5.3-3.6
		c1-0.5,2-1.1,3.2-1.5C326.9,561.1,328.1,560.7,329.5,560.3z">

                    <animate attributeName="fill" values="#00AEEF;transparent" dur="1s" repeatCount="indefinite" />
                </path>
            </g>
            <g>
                <path class="st6" d="M271.7,639c0-1.4,0-2.7,0.2-4c0.2-1.2,0.4-2.4,0.7-3.5c0.6-2.2,1.3-4.2,2.2-6c1.8-3.7,4.1-6.7,6.9-9.2
		c2.8-2.6,6-4.6,9.8-6.1c1.9-0.7,3.9-1.3,6.2-1.6c1.1-0.2,2.3-0.3,3.5-0.3c1.2-0.1,2.5,0,4,0.1c0,1.4,0,2.8-0.2,4
		c-0.1,1.2-0.4,2.4-0.6,3.5c-0.6,2.2-1.3,4.2-2.2,6c-1.8,3.6-4.1,6.7-6.9,9.2c-2.8,2.5-6,4.6-9.8,6.1c-1.9,0.7-3.9,1.3-6.2,1.6
		c-1.1,0.2-2.3,0.3-3.5,0.4C274.4,639.2,273.1,639.2,271.7,639z">

                    <animate attributeName="fill" values="#00AEEF;transparent" dur="2s" repeatCount="indefinite" />
                </path>
            </g>
            <g>
                <path class="st6" d="M272,645.2c0.9,1.1,1.6,2.2,2.2,3.3c0.6,1.1,1.1,2.1,1.6,3.2c0.9,2.1,1.5,4.1,1.8,6.1c0.8,4,0.7,7.8,0,11.5
		c-0.7,3.7-2,7.3-4.2,10.7c-1.1,1.7-2.4,3.4-4,5c-0.8,0.8-1.6,1.6-2.6,2.4c-0.9,0.8-2,1.5-3.3,2.3c-0.9-1.1-1.6-2.2-2.2-3.3
		c-0.6-1.1-1.1-2.1-1.6-3.2c-0.9-2.1-1.5-4.1-1.9-6.1c-0.8-4-0.7-7.8,0-11.5c0.7-3.7,2.1-7.3,4.2-10.7c1.1-1.7,2.4-3.4,4-5
		c0.8-0.8,1.6-1.6,2.6-2.4C269.7,646.7,270.8,645.9,272,645.2z">

                    <animate attributeName="fill" values="#00AEEF;transparent" dur="3s" repeatCount="indefinite" />
                </path>
            </g>
            <g>
                <path class="st6" d="M431.5,560.3c1.4,0.3,2.6,0.7,3.8,1.2c1.2,0.5,2.2,1,3.2,1.5c2,1.1,3.7,2.3,5.3,3.6c3.1,2.6,5.4,5.7,7.2,9
		c1.8,3.3,3,7,3.4,11c0.2,2,0.2,4.1,0,6.4c-0.1,1.1-0.3,2.3-0.6,3.5c-0.2,1.2-0.6,2.5-1.1,3.8c-1.4-0.3-2.7-0.7-3.8-1.2
		c-1.2-0.5-2.2-1-3.2-1.5c-2-1.1-3.7-2.3-5.3-3.6c-3.1-2.6-5.4-5.7-7.2-9c-1.7-3.3-2.9-7-3.4-11c-0.2-2-0.2-4.1,0-6.4
		c0.1-1.1,0.3-2.3,0.5-3.5C430.6,562.9,431,561.7,431.5,560.3z">

                    <animate attributeName="fill" values="#00AEEF;transparent" dur="1s" repeatCount="indefinite" />
                </path>
            </g>
            <g>
                <path class="st6" d="M490,639c-1.4,0.2-2.7,0.2-4,0.1c-1.2,0-2.4-0.2-3.5-0.4c-2.2-0.4-4.3-0.9-6.2-1.6c-3.8-1.4-7-3.5-9.8-6.1
		c-2.8-2.5-5.1-5.6-6.9-9.2c-0.9-1.8-1.6-3.8-2.2-6c-0.3-1.1-0.5-2.2-0.6-3.5c-0.2-1.2-0.2-2.5-0.2-4c1.4-0.2,2.7-0.2,4-0.1
		c1.2,0,2.4,0.2,3.5,0.3c2.2,0.4,4.3,0.9,6.2,1.6c3.8,1.5,7,3.5,9.8,6.1c2.8,2.6,5.1,5.6,6.9,9.2c0.9,1.8,1.6,3.8,2.2,6
		c0.3,1.1,0.5,2.2,0.7,3.5C490,636.3,490.1,637.6,490,639z">

                    <animate attributeName="fill" values="#00AEEF;transparent" dur="2s" repeatCount="indefinite" />
                </path>
            </g>
            <g>
                <path class="st6" d="M489.7,645.2c1.2,0.7,2.3,1.5,3.3,2.3c1,0.8,1.8,1.6,2.6,2.4c1.6,1.6,2.9,3.3,4,5c2.2,3.4,3.5,7,4.2,10.7
		c0.7,3.7,0.8,7.5,0,11.5c-0.4,2-1,4-1.9,6.1c-0.5,1-0.9,2.1-1.6,3.2c-0.6,1.1-1.3,2.2-2.2,3.3c-1.2-0.7-2.3-1.5-3.3-2.3
		c-1-0.8-1.8-1.6-2.6-2.4c-1.6-1.6-2.9-3.3-4-5c-2.2-3.4-3.5-7-4.2-10.7c-0.7-3.7-0.8-7.5,0-11.5c0.4-2,1-4,1.8-6.1
		c0.5-1,0.9-2.1,1.6-3.2C488.1,647.4,488.8,646.3,489.7,645.2z">

                    <animate attributeName="fill" values="#00AEEF;transparent" dur="3s" repeatCount="indefinite" />
                </path>
            </g>
</svg>